<svg width="120" height="121" viewBox="0 0 120 121" fill="none" xmlns="http://www.w3.org/2000/svg">
<path d="M45.0042 2.08011C45.7364 2.96979 46.1849 4.05858 46.2919 5.20582C46.3989 6.35306 46.1593 7.50601 45.6043 8.51571C41.2678 16.4775 39.0032 25.402 39.0187 34.4681C39.0187 64.6285 63.606 89.0508 93.9088 89.0508C97.8617 89.0508 101.71 88.6382 105.407 87.8506C106.541 87.6052 107.722 87.6991 108.802 88.1206C109.883 88.5421 110.815 89.2726 111.483 90.2209C112.188 91.2068 112.547 92.3981 112.505 93.6095C112.463 94.8208 112.022 95.9843 111.25 96.919C105.367 104.145 97.946 109.968 89.5271 113.962C81.1082 117.956 71.9041 120.021 62.5859 120.006C28.0076 120.006 0 92.1485 0 57.8253C0 31.9929 15.8565 9.83583 38.4336 0.444956C39.5582 -0.0303494 40.8067 -0.127904 41.9916 0.166948C43.1764 0.461799 44.2335 1.13314 45.0042 2.08011ZM36.4384 9.82833C27.7571 14.485 20.4997 21.4067 15.4374 29.8579C10.3752 38.3091 7.69722 47.974 7.68822 57.8253C7.68822 87.9781 32.283 112.4 62.5859 112.4C69.8424 112.413 77.0293 110.986 83.7307 108.203C90.4321 105.419 96.5149 101.334 101.627 96.1839C99.0993 96.4989 96.5265 96.6565 93.9088 96.6565C59.3306 96.6565 31.3304 68.7989 31.3304 34.4756C31.3304 25.7223 33.1456 17.389 36.4384 9.82833Z" fill="white"/>
<path d="M80.9629 23.607C81.0704 23.2821 81.2776 22.9995 81.555 22.7991C81.8324 22.5988 82.1658 22.491 82.508 22.491C82.8502 22.491 83.1836 22.5988 83.461 22.7991C83.7384 22.9995 83.9456 23.2821 84.0532 23.607L86.9559 32.3228C88.2536 36.2081 91.2988 39.2534 95.1842 40.551L103.9 43.4538C104.225 43.5614 104.507 43.7686 104.708 44.046C104.908 44.3233 105.016 44.6568 105.016 44.999C105.016 45.3411 104.908 45.6746 104.708 45.952C104.507 46.2294 104.225 46.4366 103.9 46.5441L95.1842 49.4469C93.268 50.0853 91.5267 51.1613 90.0985 52.5895C88.6703 54.0177 87.5944 55.7589 86.9559 57.6752L84.0532 66.391C83.9456 66.7158 83.7384 66.9985 83.461 67.1988C83.1836 67.3991 82.8502 67.507 82.508 67.507C82.1658 67.507 81.8324 67.3991 81.555 67.1988C81.2776 66.9985 81.0704 66.7158 80.9629 66.391L78.0601 57.6752C77.4217 55.7589 76.3457 54.0177 74.9175 52.5895C73.4893 51.1613 71.7481 50.0853 69.8318 49.4469L61.116 46.5441C60.7912 46.4366 60.5085 46.2294 60.3082 45.952C60.1078 45.6746 60 45.3411 60 44.999C60 44.6568 60.1078 44.3233 60.3082 44.046C60.5085 43.7686 60.7912 43.5614 61.116 43.4538L69.8318 40.551C71.7481 39.9126 73.4893 38.8367 74.9175 37.4084C76.3457 35.9802 77.4217 34.239 78.0601 32.3228L80.9629 23.607ZM103.983 0.73732C104.057 0.523747 104.195 0.338552 104.379 0.207482C104.564 0.0764124 104.784 0.00598145 105.01 0.00598145C105.236 0.00598145 105.457 0.0764124 105.641 0.207482C105.825 0.338552 105.964 0.523747 106.038 0.73732L107.973 6.54286C108.835 9.13811 110.868 11.1708 113.463 12.0334L119.269 13.9686C119.483 14.0426 119.668 14.1814 119.799 14.3655C119.93 14.5497 120 14.7701 120 14.9962C120 15.2222 119.93 15.4426 119.799 15.6268C119.668 15.811 119.483 15.9497 119.269 16.0238L113.463 17.9589C112.184 18.3844 111.022 19.1022 110.069 20.0552C109.116 21.0083 108.398 22.1705 107.973 23.4494L106.038 29.255C105.964 29.4686 105.825 29.6538 105.641 29.7848C105.457 29.9159 105.236 29.9863 105.01 29.9863C104.784 29.9863 104.564 29.9159 104.379 29.7848C104.195 29.6538 104.057 29.4686 103.983 29.255L102.047 23.4494C101.622 22.1705 100.904 21.0083 99.951 20.0552C98.9979 19.1022 97.8358 18.3844 96.5568 17.9589L90.7513 16.0238C90.5377 15.9497 90.3525 15.811 90.2214 15.6268C90.0904 15.4426 90.0199 15.2222 90.0199 14.9962C90.0199 14.7701 90.0904 14.5497 90.2214 14.3655C90.3525 14.1814 90.5377 14.0426 90.7513 13.9686L96.5568 12.0334C99.1521 11.1708 101.185 9.13811 102.047 6.54286L103.983 0.74482V0.73732Z" fill="white"/>
</svg>
