<svg width="255" height="255" viewBox="0 0 255 255" fill="none" xmlns="http://www.w3.org/2000/svg">
<path d="M127.5 44.6957C129.379 44.6957 131.18 43.9494 132.509 42.621C133.837 41.2926 134.583 39.491 134.583 37.6123V13.529C134.583 11.6504 133.837 9.84872 132.509 8.52034C131.18 7.19196 129.379 6.44568 127.5 6.44568C125.621 6.44568 123.82 7.19196 122.491 8.52034C121.163 9.84872 120.417 11.6504 120.417 13.529V37.6123C120.417 39.491 121.163 41.2926 122.491 42.621C123.82 43.9494 125.621 44.6957 127.5 44.6957Z" fill="white"/>
<path d="M127.5 210.304C125.621 210.304 123.82 211.05 122.491 212.379C121.163 213.707 120.417 215.509 120.417 217.388V241.471C120.417 243.349 121.163 245.151 122.491 246.48C123.82 247.808 125.621 248.554 127.5 248.554C129.379 248.554 131.18 247.808 132.509 246.48C133.837 245.151 134.583 243.349 134.583 241.471V217.388C134.583 215.509 133.837 213.707 132.509 212.379C131.18 211.05 129.379 210.304 127.5 210.304V210.304Z" fill="white"/>
<path d="M58.9335 68.9918C60.2506 70.1891 61.9702 70.8466 63.7501 70.8335C64.6823 70.8389 65.6065 70.6602 66.4695 70.3077C67.3325 69.9552 68.1174 69.4358 68.7793 68.7793C69.4432 68.1208 69.9702 67.3374 70.3298 66.4742C70.6894 65.611 70.8745 64.6852 70.8745 63.7501C70.8745 62.815 70.6894 61.8892 70.3298 61.026C69.9702 60.1629 69.4432 59.3795 68.7793 58.721L51.921 41.9335C50.5659 40.773 48.8229 40.1666 47.0402 40.2355C45.2575 40.3044 43.5664 41.0434 42.3049 42.3049C41.0434 43.5664 40.3044 45.2575 40.2355 47.0402C40.1666 48.8229 40.773 50.5659 41.9335 51.921L58.9335 68.9918Z" fill="white"/>
<path d="M196.067 186.008C195.406 185.348 194.622 184.824 193.76 184.466C192.897 184.109 191.972 183.925 191.038 183.925C190.104 183.925 189.179 184.109 188.316 184.466C187.453 184.824 186.669 185.348 186.009 186.008C185.348 186.669 184.824 187.453 184.467 188.316C184.109 189.179 183.925 190.103 183.925 191.037C183.925 191.971 184.109 192.896 184.467 193.759C184.824 194.622 185.348 195.406 186.009 196.067L203.079 213.067C203.735 213.736 204.518 214.268 205.381 214.633C206.244 214.998 207.171 215.188 208.109 215.192C209.977 215.165 211.759 214.401 213.067 213.067C214.386 211.739 215.127 209.944 215.127 208.073C215.127 206.201 214.386 204.406 213.067 203.079L196.067 186.008Z" fill="white"/>
<path d="M44.696 127.5C44.696 125.621 43.9498 123.82 42.6214 122.491C41.293 121.163 39.4913 120.417 37.6127 120.417H13.5294C11.6508 120.417 9.84909 121.163 8.52071 122.491C7.19232 123.82 6.44604 125.621 6.44604 127.5C6.44604 129.379 7.19232 131.18 8.52071 132.509C9.84909 133.837 11.6508 134.583 13.5294 134.583H37.6127C39.4913 134.583 41.293 133.837 42.6214 132.509C43.9498 131.18 44.696 129.379 44.696 127.5Z" fill="white"/>
<path d="M241.471 120.417H217.387C215.509 120.417 213.707 121.163 212.378 122.491C211.05 123.82 210.304 125.621 210.304 127.5C210.304 129.379 211.05 131.18 212.378 132.509C213.707 133.837 215.509 134.583 217.387 134.583H241.471C243.349 134.583 245.151 133.837 246.479 132.509C247.808 131.18 248.554 129.379 248.554 127.5C248.554 125.621 247.808 123.82 246.479 122.491C245.151 121.163 243.349 120.417 241.471 120.417Z" fill="white"/>
<path d="M58.9331 186.008L41.9331 203.079C40.9384 204.066 40.2586 205.325 39.9796 206.698C39.7007 208.071 39.835 209.495 40.3658 210.792C40.8965 212.088 41.7997 213.198 42.9613 213.981C44.1228 214.765 45.4905 215.186 46.8914 215.192C47.8286 215.188 48.7557 214.998 49.619 214.633C50.4822 214.268 51.2645 213.736 51.9206 213.067L68.9914 196.067C70.3252 194.733 71.0746 192.924 71.0746 191.037C71.0746 189.151 70.3252 187.342 68.9914 186.008C67.6576 184.674 65.8485 183.925 63.9622 183.925C62.0759 183.925 60.2669 184.674 58.9331 186.008V186.008Z" fill="white"/>
<path d="M191.25 70.8332C192.182 70.8386 193.106 70.6599 193.969 70.3074C194.832 69.9549 195.617 69.4355 196.279 68.779L213.279 51.7082C214.598 50.381 215.339 48.5857 215.339 46.7144C215.339 44.8431 214.598 43.0478 213.279 41.7207C211.952 40.4014 210.156 39.6609 208.285 39.6609C206.414 39.6609 204.618 40.4014 203.291 41.7207L186.22 58.7207C185.557 59.3792 185.03 60.1626 184.67 61.0257C184.31 61.8889 184.125 62.8147 184.125 63.7498C184.125 64.6849 184.31 65.6107 184.67 66.4739C185.03 67.3371 185.557 68.1205 186.22 68.779C186.882 69.4355 187.667 69.9549 188.53 70.3074C189.393 70.6599 190.317 70.8386 191.25 70.8332Z" fill="white"/>
<path d="M128.421 54.8958C114.191 54.7132 100.229 58.7658 88.3087 66.5384C76.3882 74.311 67.0482 85.4526 61.4758 98.5468C55.9034 111.641 54.3504 126.096 57.0142 140.076C59.678 154.055 66.4382 166.926 76.4356 177.053C86.433 187.181 99.2159 194.106 113.159 196.951C127.103 199.795 141.577 198.429 154.742 193.026C167.907 187.623 179.169 178.428 187.095 166.608C195.02 154.789 199.253 140.881 199.254 126.65C199.349 107.75 191.945 89.5837 178.668 76.1332C165.39 62.6828 147.32 55.0456 128.421 54.8958V54.8958ZM128.421 184.167C116.991 184.349 105.765 181.126 96.1726 174.907C86.5804 168.689 79.0562 159.756 74.558 149.246C70.0599 138.737 68.7914 127.126 70.9141 115.893C73.0368 104.661 78.4546 94.3136 86.4776 86.1702C94.5006 78.0269 104.766 72.4556 115.966 70.166C127.166 67.8763 138.794 68.9718 149.369 73.313C159.944 77.6542 168.988 85.0446 175.349 94.5431C181.71 104.042 185.1 115.218 185.088 126.65C185.163 141.781 179.244 156.325 168.625 167.104C158.006 177.882 143.551 184.017 128.421 184.167V184.167Z" fill="white"/>
</svg>
