<svg width="146" height="125" viewBox="0 0 146 125" fill="none" xmlns="http://www.w3.org/2000/svg">
<path d="M40.2048 26.1094C49.325 19.3761 60.9572 15.6573 73 15.625C97.5462 15.625 117.922 31.25 120.14 51.3984C134.667 53.1562 146 63.5703 146 76.3516C146 90.3828 132.331 101.562 115.769 101.562H34.5016C15.5855 101.562 0 88.7969 0 72.7969C0 59.0234 11.5522 47.6172 26.8457 44.7266C28.1506 37.9844 33.215 31.2656 40.2048 26.1094ZM46.1634 32.0234C39.2557 37.125 35.6423 43.2734 35.6423 48.0859V51.5859L31.5816 51.9688C18.834 53.1641 9.125 62.125 9.125 72.7969C9.125 84.2578 20.3487 93.75 34.5016 93.75H115.769C127.568 93.75 136.875 85.8438 136.875 76.3516C136.875 66.8516 127.568 58.9453 115.769 58.9453H111.206V55.0391C111.215 37.6953 94.243 23.4375 73 23.4375C63.1439 23.4712 53.6262 26.519 46.1634 32.0312V32.0234Z" fill="white"/>
</svg>
