<svg width="138" height="115" viewBox="0 0 138 115" fill="none" xmlns="http://www.w3.org/2000/svg">
<g clip-path="url(#clip0)">
<path d="M60.376 57.5002C64.3805 57.4997 68.3451 58.1633 72.0389 59.4522C75.7327 60.741 79.0818 62.6295 81.8913 65.0075C84.7007 67.3855 86.9144 70.2055 88.4032 73.3034C89.8921 76.4013 90.6264 79.715 90.5635 83.0517C90.5534 83.6042 90.6963 84.1511 90.981 84.6501C91.2658 85.149 91.6848 85.5866 92.2054 85.9287C92.7261 86.2707 93.3343 86.5082 93.983 86.6225C94.6317 86.7369 95.3032 86.7251 95.9455 86.588C97.858 86.1797 99.857 86.1408 101.79 86.4743C103.723 86.8077 105.54 87.5047 107.101 88.5121C108.661 89.5195 109.925 90.8107 110.796 92.2871C111.667 93.7635 112.122 95.3862 112.126 97.0314C112.126 99.8908 110.763 102.633 108.337 104.655C105.91 106.677 102.62 107.813 99.1885 107.813H25.876C23.5826 107.802 21.3149 107.41 19.2054 106.66C17.0959 105.91 15.187 104.818 13.5903 103.446C11.9937 102.074 10.7414 100.45 9.90663 98.67C9.07189 96.8899 8.67148 94.989 8.72882 93.0784C8.78617 91.1679 9.30012 89.286 10.2406 87.5429C11.1811 85.7998 12.5292 84.2305 14.2062 82.9268C15.8831 81.6231 17.8552 80.6111 20.0071 79.9501C22.1589 79.2891 24.4474 78.9923 26.7385 79.077C27.7323 79.1197 28.7132 78.8746 29.5149 78.3833C30.3166 77.8921 30.8898 77.1849 31.1373 76.3817C32.8102 70.979 36.59 66.1926 41.8825 62.7748C47.1751 59.3571 53.6804 57.5016 60.376 57.5002ZM98.9556 79.0627C97.9853 71.7755 94.0726 64.9794 87.8592 59.7884C81.6458 54.5974 73.5003 51.3197 64.7583 50.4926C56.0162 49.6655 47.1963 51.3382 39.7446 55.2363C32.2929 59.1344 26.6516 65.0266 23.7456 71.947C17.0866 72.4012 10.8966 74.9843 6.47117 79.1556C2.04579 83.3269 -0.271835 88.763 0.00343631 94.326C0.278708 99.889 3.12553 105.148 7.948 109.001C12.7705 112.855 19.1947 115.004 25.876 115H99.1885C104.907 115 110.392 113.107 114.436 109.737C118.479 106.367 120.751 101.797 120.751 97.0314C120.751 92.2658 118.479 87.6954 114.436 84.3256C110.392 80.9558 104.907 79.0627 99.1885 79.0627H98.9556Z" fill="white"/>
<path d="M90.5622 10.7813C90.5622 9.82813 90.1078 8.91404 89.2991 8.24008C88.4903 7.56613 87.3934 7.1875 86.2497 7.1875C85.1059 7.1875 84.009 7.56613 83.2003 8.24008C82.3915 8.91404 81.9372 9.82813 81.9372 10.7813V17.9688C81.9372 18.9219 82.3915 19.836 83.2003 20.5099C84.009 21.1839 85.1059 21.5625 86.2497 21.5625C87.3934 21.5625 88.4903 21.1839 89.2991 20.5099C90.1078 19.836 90.5622 18.9219 90.5622 17.9688V10.7813ZM122.846 24.8975C123.257 24.566 123.586 24.1694 123.812 23.731C124.038 23.2925 124.157 22.821 124.162 22.3438C124.167 21.8666 124.058 21.3934 123.841 20.9517C123.624 20.5101 123.304 20.1088 122.899 19.7714C122.494 19.434 122.013 19.1671 121.483 18.9864C120.953 18.8057 120.385 18.7148 119.812 18.7189C119.24 18.7231 118.674 18.8222 118.148 19.0106C117.621 19.1989 117.146 19.4727 116.748 19.8159L110.641 24.8975C109.831 25.5723 109.376 26.4876 109.376 27.4419C109.376 28.3962 109.831 29.3114 110.641 29.9863C111.451 30.6611 112.549 31.0402 113.694 31.0402C114.84 31.0402 115.938 30.6611 116.748 29.9863L122.846 24.8975ZM55.7517 19.8159C54.9383 19.1613 53.849 18.7991 52.7183 18.8073C51.5875 18.8155 50.5059 19.1934 49.7063 19.8597C48.9068 20.526 48.4532 21.4274 48.4434 22.3697C48.4336 23.3119 48.8683 24.2197 49.6538 24.8975L55.7517 29.9863C56.1526 30.3204 56.6286 30.5854 57.1525 30.7663C57.6764 30.9471 58.2379 31.0402 58.8049 31.0402C59.372 31.0402 59.9335 30.9471 60.4573 30.7663C60.9812 30.5854 61.4572 30.3204 61.8582 29.9863C62.2591 29.6521 62.5772 29.2554 62.7942 28.8189C63.0112 28.3823 63.1229 27.9144 63.1229 27.4419C63.1229 26.9693 63.0112 26.5014 62.7942 26.0649C62.5772 25.6283 62.2591 25.2316 61.8582 24.8975L55.7517 19.8159ZM70.7074 44.0666C71.7794 42.2153 73.3153 40.5772 75.2116 39.2627C77.1078 37.9482 79.3203 36.9879 81.6998 36.4465C84.0793 35.9051 86.5704 35.7953 89.0052 36.1244C91.4399 36.4535 93.7617 37.2139 95.8138 38.3543C97.8659 39.4947 99.6007 40.9886 100.901 42.7352C102.202 44.4818 103.037 46.4405 103.352 48.4792C103.667 50.5179 103.453 52.5891 102.726 54.5532C101.999 56.5172 100.774 58.3285 99.1354 59.8647C100.852 61.8844 102.344 64.0478 103.586 66.3191C106.509 64.1183 108.79 61.3903 110.256 58.3432C111.722 55.2962 112.334 52.0104 112.044 48.7365C111.755 45.4626 110.572 42.2869 108.587 39.4516C106.601 36.6163 103.865 34.1963 100.587 32.3759C97.3086 30.5556 93.5748 29.3831 89.6703 28.9478C85.7657 28.5125 81.7934 28.8259 78.0562 29.864C74.319 30.9022 70.9157 32.6378 68.1055 34.9384C65.2954 37.239 63.1528 40.044 61.8409 43.1394C64.8769 43.2184 67.8439 43.5347 70.7074 44.0666ZM109.382 73.3484C114.557 74.8938 119.085 77.5891 122.509 81.0534C122.979 80.7366 123.363 80.341 123.637 79.8924C123.912 79.4437 124.07 78.9521 124.102 78.4493C124.133 77.9464 124.038 77.4437 123.822 76.9736C123.605 76.5034 123.273 76.0765 122.846 75.7203L116.748 70.6388C116.133 70.1234 115.345 69.7754 114.488 69.6408C113.631 69.5062 112.745 69.5912 111.948 69.8847C111.15 70.1782 110.478 70.6663 110.02 71.2847C109.562 71.9031 109.339 72.6226 109.382 73.3484ZM125.062 46.7188C123.918 46.7188 122.822 47.0974 122.013 47.7713C121.204 48.4453 120.75 49.3594 120.75 50.3125C120.75 51.2656 121.204 52.1797 122.013 52.8537C122.822 53.5276 123.918 53.9063 125.062 53.9063H133.687C134.831 53.9063 135.928 53.5276 136.737 52.8537C137.545 52.1797 138 51.2656 138 50.3125C138 49.3594 137.545 48.4453 136.737 47.7713C135.928 47.0974 134.831 46.7188 133.687 46.7188H125.062Z" fill="white"/>
</g>
<defs>
<clipPath id="clip0">
<rect width="138" height="115" fill="white"/>
</clipPath>
</defs>
</svg>
