<svg width="120" height="120" viewBox="0 0 120 120" fill="none" xmlns="http://www.w3.org/2000/svg">
<g clip-path="url(#clip0)">
<path d="M52.4997 59.9997C55.9819 59.9993 59.4293 60.6917 62.6413 62.0366C65.8533 63.3815 68.7656 65.352 71.2086 67.8334C73.6516 70.3148 75.5765 73.2575 76.8712 76.4901C78.1658 79.7226 78.8044 83.1805 78.7497 86.6622C78.7406 87.2395 78.8649 87.8111 79.1129 88.3325C79.3609 88.8538 79.726 89.3109 80.1797 89.668C80.6333 90.0251 81.1633 90.2727 81.7283 90.3913C82.2934 90.51 82.8782 90.4966 83.4372 90.3522C85.0997 89.9275 86.8372 89.888 88.5173 90.2366C90.1974 90.5852 91.7757 91.3127 93.132 92.3638C94.4883 93.4148 95.5868 94.7616 96.3437 96.3015C97.1006 97.8414 97.496 99.5338 97.4997 101.25C97.4997 104.233 96.3144 107.095 94.2046 109.205C92.0948 111.314 89.2334 112.5 86.2497 112.5H22.4997C20.5054 112.488 18.5335 112.08 16.6991 111.297C14.8648 110.515 13.2048 109.374 11.8165 107.943C10.4281 106.511 9.33912 104.817 8.61326 102.96C7.8874 101.102 7.53922 99.1185 7.58908 97.1249C7.63895 95.1312 8.08586 93.1676 8.90368 91.3487C9.72149 89.5298 10.8938 87.8923 12.352 86.5319C13.8102 85.1715 15.5251 84.1155 17.3963 83.4258C19.2674 82.736 21.2574 82.4263 23.2497 82.5147C24.1126 82.5574 24.9638 82.3009 25.6594 81.7884C26.3549 81.276 26.8522 80.539 27.0672 79.7022C28.5222 74.0633 31.8101 69.0679 36.4138 65.5014C41.0176 61.9349 46.6761 59.9996 52.4997 59.9997ZM86.0472 82.4997C85.2034 74.8958 81.8011 67.8041 76.3981 62.3875C70.9951 56.9708 63.9121 53.5506 56.3103 52.6875C48.7085 51.8245 41.0391 53.5698 34.5593 57.6374C28.0796 61.705 23.1741 67.8535 20.6472 75.0747C14.8567 75.5487 9.47406 78.2441 5.6259 82.5967C1.77775 86.9494 -0.237578 92.6219 0.00178862 98.4267C0.241155 104.232 2.71666 109.719 6.91011 113.74C11.1036 117.761 16.6899 120.004 22.4997 120H86.2497C91.2225 120 95.9916 118.024 99.5079 114.508C103.024 110.992 105 106.223 105 101.25C105 96.2769 103.024 91.5078 99.5079 87.9915C95.9916 84.4752 91.2225 82.4997 86.2497 82.4997H86.0472Z" fill="white"/>
<path d="M84.6443 13.3349C85.0754 12.6898 85.2958 11.9269 85.2751 11.1513C85.2544 10.3758 84.9937 9.6257 84.5288 9.00453C84.064 8.38335 83.4179 7.92166 82.6796 7.68306C81.9414 7.44447 81.1473 7.44074 80.4068 7.67237C72.6413 10.1043 65.9869 15.2057 61.6217 22.0732C57.2566 28.9407 55.4624 37.1314 56.5568 45.1949C59.2395 45.4557 61.8899 45.9808 64.4693 46.7624C63.3112 41.8266 63.565 36.6647 65.2015 31.8663C66.8381 27.0679 69.7916 22.8267 73.7243 19.6274C72.4254 24.636 72.2715 29.873 73.274 34.9493C74.2766 40.0256 76.4098 44.8108 79.5154 48.9496C82.6209 53.0884 86.6189 56.4744 91.2125 58.8562C95.8061 61.2379 100.877 62.5543 106.049 62.7074C101.134 66.1235 95.218 67.7973 89.2418 67.4624C90.4568 69.8399 91.4543 72.3524 92.1968 74.9624C97.6119 74.7318 102.896 73.2259 107.619 70.5672C112.342 67.9085 116.371 64.1722 119.377 59.6624C119.808 59.0173 120.028 58.2544 120.008 57.4788C119.987 56.7033 119.726 55.9532 119.261 55.332C118.796 54.7109 118.15 54.2492 117.412 54.0106C116.674 53.772 115.88 53.7682 115.139 53.9999C109.82 55.6696 104.113 55.6482 98.8059 53.9385C93.4989 52.2288 88.8529 48.9149 85.5083 44.4539C82.1637 39.9928 80.2853 34.6041 80.1319 29.0305C79.9785 23.457 81.5577 17.9732 84.6518 13.3349H84.6443Z" fill="white"/>
</g>
<defs>
<clipPath id="clip0">
<rect width="120" height="120" fill="white"/>
</clipPath>
</defs>
</svg>
