<svg width="144" height="128" viewBox="0 0 144 128" fill="none" xmlns="http://www.w3.org/2000/svg">
<g clip-path="url(#clip0)">
<path d="M37.4213 96.2004C37.9823 96.3666 38.5009 96.6296 38.9475 96.9741C39.3941 97.3187 39.76 97.7381 40.0241 98.2084C40.2882 98.6787 40.4455 99.1907 40.4869 99.715C40.5283 100.239 40.453 100.766 40.2653 101.264L35.7653 113.264C35.3556 114.233 34.5397 115.022 33.489 115.467C32.4383 115.912 31.2345 115.978 30.1303 115.651C29.0261 115.324 28.1075 114.629 27.5673 113.713C27.0271 112.796 26.9074 111.73 27.2333 110.736L31.7333 98.7364C32.1093 97.7297 32.9198 96.8969 33.9865 96.4214C35.0532 95.9458 36.2887 95.8663 37.4213 96.2004ZM91.4213 96.2004C91.9823 96.3666 92.5009 96.6296 92.9475 96.9741C93.3941 97.3187 93.76 97.7381 94.0241 98.2084C94.2882 98.6787 94.4455 99.1907 94.4869 99.715C94.5283 100.239 94.453 100.766 94.2653 101.264L89.7653 113.264C89.3556 114.233 88.5397 115.022 87.489 115.467C86.4383 115.912 85.2345 115.978 84.1303 115.651C83.0261 115.324 82.1075 114.629 81.5673 113.713C81.0271 112.796 80.9074 111.73 81.2333 110.736L85.7333 98.7364C86.1093 97.7297 86.9198 96.8969 87.9865 96.4214C89.0532 95.9458 90.2887 95.8663 91.4213 96.2004ZM59.9213 108.2C60.4823 108.367 61.0009 108.63 61.4475 108.974C61.8941 109.319 62.26 109.738 62.5241 110.208C62.7882 110.679 62.9455 111.191 62.9869 111.715C63.0283 112.239 62.953 112.766 62.7653 113.264L58.2653 125.264C57.8556 126.233 57.0397 127.022 55.989 127.467C54.9383 127.912 53.7345 127.978 52.6303 127.651C51.5261 127.324 50.6075 126.629 50.0673 125.713C49.5271 124.796 49.4074 123.73 49.7333 122.736L54.2333 110.736C54.6093 109.73 55.4198 108.897 56.4865 108.421C57.5532 107.946 58.7887 107.866 59.9213 108.2ZM113.921 108.2C114.482 108.367 115.001 108.63 115.448 108.974C115.894 109.319 116.26 109.738 116.524 110.208C116.788 110.679 116.945 111.191 116.987 111.715C117.028 112.239 116.953 112.766 116.765 113.264L112.265 125.264C112.096 125.781 111.811 126.262 111.427 126.678C111.044 127.094 110.57 127.438 110.034 127.687C109.498 127.937 108.91 128.088 108.307 128.131C107.704 128.175 107.097 128.109 106.522 127.939C105.948 127.769 105.418 127.498 104.965 127.141C104.511 126.785 104.143 126.351 103.883 125.865C103.623 125.379 103.475 124.852 103.449 124.314C103.424 123.777 103.52 123.24 103.733 122.736L108.233 110.736C108.609 109.73 109.42 108.897 110.486 108.421C111.553 107.946 112.789 107.866 113.921 108.2ZM120.644 40.2164C118.775 31.8417 113.941 24.218 106.849 18.4602C99.7569 12.7023 90.7784 9.11224 81.2265 8.21483C71.6746 7.31741 62.0501 9.15974 53.7605 13.4724C45.4708 17.7851 38.9506 24.342 35.1533 32.1844C30.8948 31.7483 26.5811 32.0894 22.4761 33.1868C18.3711 34.2842 14.5613 36.1148 11.2799 38.5666C7.99849 41.0183 5.31459 44.0396 3.3925 47.4454C1.4704 50.8512 0.350562 54.5699 0.10154 58.3738C-0.147483 62.1777 0.479552 65.9867 1.94425 69.5677C3.40896 73.1487 5.6805 76.4263 8.61981 79.1998C11.5591 81.9733 15.1044 84.1844 19.0384 85.6976C22.9725 87.2109 27.2127 87.9944 31.4993 88.0004H116.999C123.849 88.0073 130.446 85.6997 135.454 81.5449C140.461 77.3902 143.505 71.6989 143.968 65.624C144.432 59.549 142.28 53.5446 137.949 48.8271C133.619 44.1095 127.433 41.0314 120.644 40.2164ZM76.4993 16.0004C85.3549 15.9987 93.9005 18.8985 100.502 24.1453C107.104 29.392 111.298 36.6176 112.283 44.4404C112.406 45.4232 112.933 46.331 113.764 46.9884C114.595 47.6459 115.671 48.0064 116.783 48.0004H116.999C121.773 48.0004 126.352 49.6861 129.727 52.6866C133.103 55.6872 134.999 59.7569 134.999 64.0004C134.999 68.2438 133.103 72.3135 129.727 75.3141C126.352 78.3146 121.773 80.0004 116.999 80.0004H31.4993C28.314 79.9989 25.1653 79.3964 22.2615 78.2325C19.3577 77.0686 16.7651 75.3699 14.655 73.2488C12.545 71.1277 10.9657 68.6325 10.0216 65.9284C9.07742 63.2242 8.79 60.3726 9.17829 57.5623C9.56659 54.752 10.6218 52.0471 12.274 49.6263C13.9262 47.2056 16.1379 45.1243 18.7627 43.5201C21.3874 41.9159 24.3654 40.8254 27.4998 40.3207C30.6341 39.816 33.8533 39.9086 36.9443 40.5924C38.0471 40.8368 39.2131 40.7014 40.2081 40.2131C41.2031 39.7249 41.9534 38.9201 42.3083 37.9604C44.6868 31.5698 49.2708 26.0081 55.4089 22.0658C61.5469 18.1235 68.9266 16.0011 76.4993 16.0004Z" fill="white"/>
</g>
<defs>
<clipPath id="clip0">
<rect width="144" height="128" fill="white"/>
</clipPath>
</defs>
</svg>
