<svg width="154" height="145" viewBox="0 0 154 145" fill="none" xmlns="http://www.w3.org/2000/svg">
<path d="M40.0208 106.741C40.6208 106.941 41.1754 107.257 41.653 107.672C42.1306 108.086 42.5219 108.591 42.8044 109.157C43.0868 109.722 43.255 110.338 43.2993 110.969C43.3435 111.6 43.263 112.233 43.0623 112.833L38.2498 127.271C37.8117 128.436 36.9391 129.386 35.8154 129.921C34.6918 130.457 33.4043 130.536 32.2235 130.142C31.0426 129.749 30.0602 128.913 29.4825 127.81C28.9048 126.708 28.7768 125.424 29.1253 124.229L33.9378 109.792C34.34 108.581 35.2067 107.579 36.3475 107.007C37.4882 106.434 38.8095 106.339 40.0208 106.741ZM68.8958 106.741C69.4958 106.941 70.0504 107.257 70.528 107.672C71.0056 108.086 71.3969 108.591 71.6794 109.157C71.9618 109.722 72.13 110.338 72.1743 110.969C72.2185 111.6 72.138 112.233 71.9373 112.833L62.3123 141.708C61.8742 142.873 61.0016 143.823 59.8779 144.359C58.7543 144.894 57.4668 144.973 56.286 144.58C55.1051 144.186 54.1227 143.35 53.545 142.248C52.9673 141.145 52.8393 139.862 53.1878 138.667L62.8128 109.792C63.215 108.581 64.0817 107.579 65.2225 107.007C66.3632 106.434 67.6845 106.339 68.8958 106.741ZM97.7708 106.741C98.3708 106.941 98.9254 107.257 99.403 107.672C99.8807 108.086 100.272 108.591 100.554 109.157C100.837 109.722 101.005 110.338 101.049 110.969C101.094 111.6 101.013 112.233 100.812 112.833L95.9998 127.271C95.5617 128.436 94.6891 129.386 93.5655 129.921C92.4418 130.457 91.1543 130.536 89.9735 130.142C88.7926 129.749 87.8102 128.913 87.2325 127.81C86.6548 126.708 86.5268 125.424 86.8753 124.229L91.6878 109.792C92.09 108.581 92.9567 107.579 94.0975 107.007C95.2382 106.434 96.5595 106.339 97.7708 106.741ZM126.646 106.741C127.246 106.941 127.8 107.257 128.278 107.672C128.756 108.086 129.147 108.591 129.429 109.157C129.712 109.722 129.88 110.338 129.924 110.969C129.969 111.6 129.888 112.233 129.687 112.833L120.062 141.708C119.881 142.33 119.576 142.908 119.166 143.409C118.756 143.91 118.249 144.323 117.676 144.624C117.102 144.924 116.474 145.106 115.829 145.158C115.184 145.21 114.535 145.131 113.92 144.926C113.306 144.722 112.74 144.395 112.255 143.966C111.77 143.538 111.376 143.015 111.098 142.431C110.819 141.846 110.662 141.212 110.634 140.565C110.607 139.918 110.71 139.273 110.938 138.667L120.563 109.792C120.965 108.581 121.832 107.579 122.972 107.007C124.113 106.434 125.435 106.339 126.646 106.741ZM129.023 39.3849C127.024 29.309 121.855 20.1369 114.27 13.2095C106.685 6.28206 97.0833 1.96273 86.868 0.883022C76.6528 -0.196684 66.36 2.01986 57.4946 7.20858C48.6293 12.3973 41.6563 20.286 37.5953 29.7214C33.0411 29.1967 28.4278 29.6071 24.0377 30.9274C19.6476 32.2478 15.5733 34.4502 12.064 37.4C8.55474 40.3497 5.68445 43.9847 3.62888 48.0823C1.57331 52.1799 0.375701 56.654 0.109385 61.2305C-0.156931 65.8071 0.513648 70.3899 2.08006 74.6982C3.64648 79.0066 6.07577 82.95 9.21921 86.2868C12.3626 89.6237 16.1541 92.2839 20.3614 94.1045C24.5686 95.9251 29.1033 96.8679 33.6876 96.875H125.125C132.451 96.8834 139.506 94.107 144.861 89.1083C150.216 84.1096 153.471 77.2623 153.967 69.9534C154.462 62.6445 152.162 55.4205 147.53 49.7446C142.899 44.0688 136.283 40.3655 129.023 39.3849ZM81.8126 10.25C91.2831 10.248 100.422 13.7368 107.482 20.0493C114.542 26.3618 119.028 35.0551 120.082 44.4669C120.212 45.6494 120.777 46.7415 121.665 47.5325C122.554 48.3235 123.704 48.7572 124.894 48.75H125.125C130.23 48.75 135.127 50.7781 138.737 54.3882C142.347 57.9983 144.375 62.8946 144.375 68C144.375 73.1054 142.347 78.0017 138.737 81.6118C135.127 85.2219 130.23 87.25 125.125 87.25H33.6876C30.281 87.2483 26.9137 86.5233 23.8082 85.123C20.7028 83.7227 17.9301 81.679 15.6735 79.127C13.417 76.5751 11.728 73.5731 10.7183 70.3196C9.70859 67.0661 9.40121 63.6354 9.81647 60.2542C10.2317 56.8731 11.3602 53.6187 13.1272 50.7062C14.8941 47.7938 17.2594 45.2897 20.0664 43.3597C22.8734 41.4296 26.0583 40.1176 29.4103 39.5104C32.7623 38.9031 36.205 39.0145 39.5107 39.8372C40.69 40.1314 41.937 39.9684 43.0011 39.381C44.0652 38.7936 44.8676 37.8253 45.2472 36.6706C47.7909 28.9819 52.6932 22.2905 59.2575 17.5475C65.8218 12.8044 73.714 10.2509 81.8126 10.25Z" fill="white"/>
</svg>
