<svg width="154" height="153" viewBox="0 0 154 153" fill="none" xmlns="http://www.w3.org/2000/svg">
<g clip-path="url(#clip0)">
<path d="M129.022 40.8987C127.024 30.8883 121.854 21.7757 114.269 14.8933C106.685 8.01083 97.0826 3.71955 86.8673 2.64685C76.652 1.57416 66.3593 3.77631 57.4939 8.93134C48.6285 14.0864 41.6556 21.9239 37.5946 31.2979C33.0404 30.7767 28.427 31.1844 24.037 32.4962C19.6469 33.8079 15.5725 35.9961 12.0633 38.9267C8.554 41.8573 5.68372 45.4686 3.62815 49.5396C1.57257 53.6106 0.374968 58.0556 0.108652 62.6025C-0.157664 67.1493 0.512915 71.7023 2.07933 75.9828C3.64575 80.2632 6.07504 84.1809 9.21848 87.4961C12.3619 90.8113 16.1533 93.4542 20.3606 95.263C24.5679 97.0718 29.1025 98.0084 33.6868 98.0155H125.124C132.45 98.0238 139.505 95.2655 144.86 90.2992C150.216 85.333 153.471 78.5302 153.966 71.2687C154.462 64.0073 152.161 56.8301 147.529 51.1912C142.898 45.5522 136.282 41.8729 129.022 40.8987ZM81.8118 11.953C91.2824 11.951 100.421 15.4172 107.481 21.6887C114.542 27.9602 119.027 36.597 120.081 45.9477C120.212 47.1225 120.776 48.2076 121.665 48.9934C122.553 49.7792 123.704 50.2102 124.893 50.203H125.124C130.23 50.2043 135.126 52.2204 138.735 55.808C142.344 59.3955 144.371 64.2605 144.37 69.3328C144.368 74.405 142.339 79.2691 138.728 82.8548C135.117 86.4405 130.22 88.4543 125.115 88.453H33.6868C30.2803 88.4513 26.9129 87.731 23.8075 86.3398C20.7021 84.9486 17.9294 82.9181 15.6728 80.3828C13.4162 77.8474 11.7273 74.8649 10.7176 71.6326C9.70786 68.4002 9.40047 64.9917 9.81574 61.6325C10.231 58.2734 11.3594 55.0401 13.1264 52.1465C14.8934 49.253 17.2586 46.7652 20.0657 44.8477C22.8727 42.9302 26.0576 41.6267 29.4095 41.0234C32.7615 40.4201 36.2042 40.5308 39.5099 41.3481C40.6893 41.6404 41.9362 41.4784 43.0004 40.8948C44.0645 40.3113 44.8669 39.3492 45.2464 38.2021C47.7901 30.5633 52.6925 23.9154 59.2568 19.2031C65.821 14.4908 73.7133 11.9539 81.8118 11.953ZM25.2649 109.969C25.9031 109.969 26.5152 110.22 26.9664 110.669C27.4177 111.117 27.6712 111.725 27.6712 112.359V117.81L32.4933 115.065C33.0461 114.769 33.6938 114.698 34.2979 114.87C34.9021 115.041 35.4149 115.44 35.7266 115.982C36.0383 116.524 36.1243 117.166 35.9662 117.77C35.808 118.374 35.4183 118.893 34.8803 119.216L30.1159 121.922L34.8803 124.628C35.4183 124.95 35.808 125.469 35.9662 126.073C36.1243 126.677 36.0383 127.319 35.7266 127.861C35.4149 128.403 34.9021 128.802 34.2979 128.974C33.6938 129.145 33.0461 129.075 32.4933 128.778L27.6712 126.043V131.484C27.6712 132.118 27.4177 132.726 26.9664 133.175C26.5152 133.623 25.9031 133.875 25.2649 133.875C24.6268 133.875 24.0147 133.623 23.5635 133.175C23.1122 132.726 22.8587 132.118 22.8587 131.484V126.034L18.0366 128.778C17.4838 129.075 16.8361 129.145 16.232 128.974C15.6278 128.802 15.115 128.403 14.8033 127.861C14.4916 127.319 14.4056 126.677 14.5637 126.073C14.7219 125.469 15.1116 124.95 15.6496 124.628L20.4139 121.922L15.6496 119.216C15.1116 118.893 14.7219 118.374 14.5637 117.77C14.4056 117.166 14.4916 116.524 14.8033 115.982C15.115 115.44 15.6278 115.041 16.232 114.87C16.8361 114.698 17.4838 114.769 18.0366 115.065L22.8587 117.8V112.359C22.8587 111.725 23.1122 111.117 23.5635 110.669C24.0147 110.22 24.6268 109.969 25.2649 109.969ZM51.7337 129.094C52.3719 129.094 52.9839 129.345 53.4352 129.794C53.8864 130.242 54.1399 130.85 54.1399 131.484V136.935L58.9621 134.19C59.5148 133.894 60.1625 133.823 60.7667 133.995C61.3709 134.166 61.8836 134.565 62.1953 135.107C62.5071 135.649 62.5931 136.291 62.4349 136.895C62.2768 137.499 61.8871 138.018 61.3491 138.341L56.5847 141.047L61.3491 143.753C61.8871 144.075 62.2768 144.594 62.4349 145.198C62.5931 145.802 62.5071 146.444 62.1953 146.986C61.8836 147.528 61.3709 147.927 60.7667 148.099C60.1625 148.27 59.5148 148.2 58.9621 147.903L54.1399 145.168V150.609C54.1399 151.243 53.8864 151.851 53.4352 152.3C52.9839 152.748 52.3719 153 51.7337 153C51.0955 153 50.4835 152.748 50.0322 152.3C49.581 151.851 49.3274 151.243 49.3274 150.609V145.159L44.5053 147.903C43.9526 148.2 43.3049 148.27 42.7007 148.099C42.0965 147.927 41.5838 147.528 41.2721 146.986C40.9603 146.444 40.8743 145.802 41.0325 145.198C41.1906 144.594 41.5803 144.075 42.1183 143.753L46.8827 141.047L42.1183 138.341C41.5803 138.018 41.1906 137.499 41.0325 136.895C40.8743 136.291 40.9603 135.649 41.2721 135.107C41.5838 134.565 42.0965 134.166 42.7007 133.995C43.3049 133.823 43.9526 133.894 44.5053 134.19L49.3274 136.925V131.484C49.3274 130.85 49.581 130.242 50.0322 129.794C50.4835 129.345 51.0955 129.094 51.7337 129.094ZM104.671 129.094C105.309 129.094 105.921 129.345 106.373 129.794C106.824 130.242 107.077 130.85 107.077 131.484V136.935L111.9 134.19C112.452 133.894 113.1 133.823 113.704 133.995C114.308 134.166 114.821 134.565 115.133 135.107C115.445 135.649 115.531 136.291 115.372 136.895C115.214 137.499 114.825 138.018 114.287 138.341L109.522 141.047L114.287 143.753C114.825 144.075 115.214 144.594 115.372 145.198C115.531 145.802 115.445 146.444 115.133 146.986C114.821 147.528 114.308 147.927 113.704 148.099C113.1 148.27 112.452 148.2 111.9 147.903L107.077 145.168V150.609C107.077 151.243 106.824 151.851 106.373 152.3C105.921 152.748 105.309 153 104.671 153C104.033 153 103.421 152.748 102.97 152.3C102.518 151.851 102.265 151.243 102.265 150.609V145.159L97.4428 147.903C96.8901 148.2 96.2424 148.27 95.6382 148.099C95.034 147.927 94.5213 147.528 94.2096 146.986C93.8978 146.444 93.8118 145.802 93.97 145.198C94.1281 144.594 94.5178 144.075 95.0558 143.753L99.8202 141.047L95.0558 138.341C94.5178 138.018 94.1281 137.499 93.97 136.895C93.8118 136.291 93.8978 135.649 94.2096 135.107C94.5213 134.565 95.034 134.166 95.6382 133.995C96.2424 133.823 96.8901 133.894 97.4428 134.19L102.265 136.925V131.484C102.265 130.85 102.518 130.242 102.97 129.794C103.421 129.345 104.033 129.094 104.671 129.094ZM78.2025 109.969C78.8406 109.969 79.4527 110.22 79.9039 110.669C80.3552 111.117 80.6087 111.725 80.6087 112.359V117.81L85.4308 115.065C85.9836 114.769 86.6313 114.698 87.2354 114.87C87.8396 115.041 88.3524 115.44 88.6641 115.982C88.9758 116.524 89.0618 117.166 88.9037 117.77C88.7455 118.374 88.3558 118.893 87.8178 119.216L83.0535 121.922L87.8178 124.628C88.3558 124.95 88.7455 125.469 88.9037 126.073C89.0618 126.677 88.9758 127.319 88.6641 127.861C88.3524 128.403 87.8396 128.802 87.2354 128.974C86.6313 129.145 85.9836 129.075 85.4308 128.778L80.6087 126.043V131.484C80.6087 132.118 80.3552 132.726 79.9039 133.175C79.4527 133.623 78.8406 133.875 78.2025 133.875C77.5643 133.875 76.9522 133.623 76.501 133.175C76.0497 132.726 75.7962 132.118 75.7962 131.484V126.034L70.9741 128.778C70.4213 129.075 69.7736 129.145 69.1695 128.974C68.5653 128.802 68.0525 128.403 67.7408 127.861C67.4291 127.319 67.3431 126.677 67.5012 126.073C67.6594 125.469 68.0491 124.95 68.5871 124.628L73.3514 121.922L68.5871 119.216C68.0491 118.893 67.6594 118.374 67.5012 117.77C67.3431 117.166 67.4291 116.524 67.7408 115.982C68.0525 115.44 68.5653 115.041 69.1695 114.87C69.7736 114.698 70.4213 114.769 70.9741 115.065L75.7962 117.8V112.359C75.7962 111.725 76.0497 111.117 76.501 110.669C76.9522 110.22 77.5643 109.969 78.2025 109.969ZM131.14 109.969C131.778 109.969 132.39 110.22 132.841 110.669C133.293 111.117 133.546 111.725 133.546 112.359V117.81L138.368 115.065C138.921 114.769 139.569 114.698 140.173 114.87C140.777 115.041 141.29 115.44 141.602 115.982C141.913 116.524 141.999 117.166 141.841 117.77C141.683 118.374 141.293 118.893 140.755 119.216L135.991 121.922L140.755 124.628C141.293 124.95 141.683 125.469 141.841 126.073C141.999 126.677 141.913 127.319 141.602 127.861C141.29 128.403 140.777 128.802 140.173 128.974C139.569 129.145 138.921 129.075 138.368 128.778L133.546 126.043V131.484C133.546 132.118 133.293 132.726 132.841 133.175C132.39 133.623 131.778 133.875 131.14 133.875C130.502 133.875 129.89 133.623 129.438 133.175C128.987 132.726 128.734 132.118 128.734 131.484V126.034L123.912 128.778C123.359 129.075 122.711 129.145 122.107 128.974C121.503 128.802 120.99 128.403 120.678 127.861C120.367 127.319 120.281 126.677 120.439 126.073C120.597 125.469 120.987 124.95 121.525 124.628L126.289 121.922L121.525 119.216C120.987 118.893 120.597 118.374 120.439 117.77C120.281 117.166 120.367 116.524 120.678 115.982C120.99 115.44 121.503 115.041 122.107 114.87C122.711 114.698 123.359 114.769 123.912 115.065L128.734 117.8V112.359C128.734 111.725 128.987 111.117 129.438 110.669C129.89 110.22 130.502 109.969 131.14 109.969Z" fill="white"/>
</g>
<defs>
<clipPath id="clip0">
<rect width="154" height="153" fill="white"/>
</clipPath>
</defs>
</svg>
