<svg width="154" height="154" viewBox="0 0 154 154" fill="none" xmlns="http://www.w3.org/2000/svg">
<path d="M36.0938 105.875L28.875 120.312" stroke="white" stroke-width="9.625" stroke-linecap="round" stroke-linejoin="round"/>
<path d="M40.9062 129.938L36.0938 139.562" stroke="white" stroke-width="9.625" stroke-linecap="round" stroke-linejoin="round"/>
<path d="M120.312 105.875L113.094 120.312" stroke="white" stroke-width="9.625" stroke-linecap="round" stroke-linejoin="round"/>
<path d="M125.125 129.938L120.312 139.562" stroke="white" stroke-width="9.625" stroke-linecap="round" stroke-linejoin="round"/>
<path d="M62.5625 91.4375L57.75 120.312H72.1875V144.375L96.25 110.688H81.8125L86.625 91.4375" stroke="white" stroke-width="9.625" stroke-linecap="round" stroke-linejoin="round"/>
<path d="M121.615 45.9865H117.966C115.714 25.5213 98.0968 9.62502 77 9.62502C68.5238 9.61686 60.2532 12.2345 53.3251 17.118C46.3971 22.0015 41.1519 28.9111 38.3105 36.8969H36.9359C21.9149 36.8969 9.625 49.1687 9.625 64.1657C9.625 79.1656 21.9149 91.4375 36.9359 91.4375H121.615C134.148 91.4375 144.375 81.211 144.375 68.7105C144.375 56.213 134.148 45.9865 121.615 45.9865Z" stroke="white" stroke-width="9.625" stroke-linecap="round" stroke-linejoin="round"/>
</svg>
